<?xml version="1.0" encoding="UTF-8" standalone="no"?>
<svg
   xmlns:dc="http://purl.org/dc/elements/1.1/"
   xmlns:cc="http://creativecommons.org/ns#"
   xmlns:rdf="http://www.w3.org/1999/02/22-rdf-syntax-ns#"
   xmlns:svg="http://www.w3.org/2000/svg"
   xmlns="http://www.w3.org/2000/svg"
   xmlns:sodipodi="http://sodipodi.sourceforge.net/DTD/sodipodi-0.dtd"
   xmlns:inkscape="http://www.inkscape.org/namespaces/inkscape"
   version="1.1"
   id="Capa_1"
   x="0px"
   y="0px"
   width="540.22998"
   height="500"
   viewBox="0 0 540.22998 500"
   xml:space="preserve"
   sodipodi:docname="Logo_Encuentro_Solidario.svg"
   inkscape:version="1.0.1 (3bc2e813f5, 2020-09-07)"><metadata
   id="metadata52"><rdf:RDF><cc:Work
       rdf:about=""><dc:format>image/svg+xml</dc:format><dc:type
         rdf:resource="http://purl.org/dc/dcmitype/StillImage" /><dc:title></dc:title></cc:Work></rdf:RDF></metadata><defs
   id="defs50" /><sodipodi:namedview
   inkscape:document-rotation="0"
   pagecolor="#ffffff"
   bordercolor="#666666"
   borderopacity="1"
   objecttolerance="10"
   gridtolerance="10"
   guidetolerance="10"
   inkscape:pageopacity="0"
   inkscape:pageshadow="2"
   inkscape:window-width="1366"
   inkscape:window-height="705"
   id="namedview48"
   showgrid="false"
   inkscape:zoom="0.36006629"
   inkscape:cx="-390.07241"
   inkscape:cy="-24.032983"
   inkscape:window-x="-8"
   inkscape:window-y="-8"
   inkscape:window-maximized="1"
   inkscape:current-layer="Capa_1"
   showguides="false" />
<style
   type="text/css"
   id="style2">
	.st0{fill:#F9F9F9;}
	.st1{fill:#182764;}
	.st2{opacity:0.7;fill:#E0007C;enable-background:new    ;}
	.st3{opacity:0.7;fill:#F8BBDC;enable-background:new    ;}
	.st4{fill:#E0007C;}
	.st5{fill:none;stroke:#FF0098;stroke-miterlimit:10;}
</style>



<path
   class="st5"
   d="M 425.5,314.5"
   id="path45" />
<g
   transform="translate(-1.9574456,-2.278848)"
   id="g886"><g
     style="fill:#5a2a7c;fill-opacity:1;stroke:none"
     transform="matrix(7.5408022,0,-5.8829066e-5,7.5297748,-3647.7742,-1674.602)"
     id="g3733">
	<path
   style="fill:#5a2a7c;fill-opacity:1;stroke:none"
   d="m 490.7,222.7 h 53 c 3.7,0 6.7,3 6.7,6.7 v 53.1 c 0,3.7 -3,6.7 -6.7,6.7 h -53 c -3.7,0 -6.7,-3 -6.7,-6.7 v -53.2 c 0.1,-3.6 3,-6.6 6.7,-6.6 z"
   class="st0"
   id="path18" />
</g><g
     id="g876"><g
       id="g857"><path
         style="fill:#ffffff;fill-opacity:1;fill-rule:evenodd;stroke-width:0.776647;stroke-linejoin:round;paint-order:markers fill stroke"
         d="m 68.670821,248.43068 c 0,-43.74079 0.04951,-79.5287 0.110023,-79.5287 0.06051,0 1.912817,-0.27202 4.116232,-0.60448 11.634761,-1.75552 22.216833,-2.4954 38.852634,-2.71651 17.067,-0.22685 22.69651,0.1701 32.04225,2.25934 9.83274,2.19811 18.27385,6.22616 24.60039,11.73915 7.12516,6.20891 12.33107,15.52085 14.6113,26.13559 0.9383,4.36792 1.18645,14.31 0.48939,19.60721 -2.46484,18.73104 -11.47474,31.26668 -28.22299,39.26715 -7.21388,3.44599 -15.82964,5.71294 -26.17606,6.88733 -4.26417,0.48401 -20.01084,0.4928 -22.96607,0.0128 -1.18356,-0.19223 -2.26699,-0.2784 -2.40761,-0.19149 -0.14063,0.0869 -0.25568,12.87125 -0.25568,28.40964 v 28.25164 H 86.067724 68.670821 Z m 55.918619,-5.73308 c 5.77477,-0.87702 11.30647,-2.95955 14.93349,-5.62202 5.59236,-4.10517 8.99496,-10.66842 9.50703,-18.33804 0.73865,-11.06328 -4.86936,-19.51994 -15.29081,-23.05798 -4.58487,-1.55655 -6.57223,-1.7719 -15.98421,-1.73204 -5.86927,0.0249 -9.7439,0.18194 -11.49438,0.46599 l -2.6406,0.42849 v 23.59618 23.59618 l 1.22883,0.25531 c 4.43359,0.92117 14.93269,1.13812 19.74065,0.40793 z"
         id="path840" /><path
         style="fill:#ffffff;fill-opacity:1;fill-rule:evenodd;stroke-width:0.776647;stroke-linejoin:round;paint-order:markers fill stroke"
         d="m 207.43535,247.34337 v -80.616 h 50.79275 50.79274 v 15.37762 15.37762 h -33.08518 -33.08518 v 16.30959 16.3096 h 31.06589 31.0659 v 15.37762 15.37762 h -31.0659 -31.06589 v 18.32888 18.32888 h 34.63847 34.63848 v 15.22229 15.22229 h -52.34604 -52.34604 z"
         id="path842" /><path
         style="fill:#ffffff;fill-opacity:1;fill-rule:evenodd;stroke-width:0.832122;stroke-linejoin:round;paint-order:markers fill stroke"
         d="m 372.89813,330.84437 c -14.25874,-1.00236 -27.21797,-4.08918 -37.48065,-8.92768 -2.03307,-0.95852 -3.78243,-1.88184 -3.88748,-2.05181 -0.10505,-0.16998 1.52964,-7.19298 3.63265,-15.60667 l 3.82364,-15.29763 4.44268,2.20169 c 15.88431,7.87193 35.45253,11.10743 48.0202,7.93988 9.63641,-2.42875 14.85613,-8.81581 14.31468,-17.51602 -0.55939,-8.9886 -7.37393,-13.93571 -29.03796,-21.08052 -14.71646,-4.8535 -23.59845,-9.78648 -31.15142,-17.30122 -4.35214,-4.33011 -7.02793,-8.10274 -9.01339,-12.70805 -4.1983,-9.73805 -4.66436,-22.02996 -1.22638,-32.34441 5.9223,-17.76773 22.2107,-29.86985 44.88611,-33.34993 4.83829,-0.74255 16.02832,-1.00677 22.14491,-0.52289 9.10091,0.71996 15.83631,1.96344 22.86162,4.22067 3.73312,1.19945 9.82788,3.62606 10.35645,4.12338 0.26126,0.24581 -7.61048,29.17595 -8.08658,29.71972 -0.12321,0.14072 -1.33709,-0.25454 -2.69752,-0.87835 -8.55843,-3.92443 -17.359,-6.12511 -27.7012,-6.92701 -13.44471,-1.04245 -23.24159,2.47344 -26.73894,9.59604 -0.80833,1.64623 -0.97348,2.43699 -1.06714,5.10971 -0.0914,2.60866 0.0147,3.49714 0.60666,5.07664 2.28189,6.08926 8.55734,9.95392 25.79921,15.88813 11.42041,3.93061 19.07516,7.39786 25.26471,11.44377 14.98408,9.79458 21.69554,22.75374 21.05331,40.65179 -0.20288,5.6537 -0.84664,9.43753 -2.38569,14.02228 -5.16304,15.38043 -17.53195,26.2393 -35.77965,31.41153 -8.51172,2.41261 -21.82303,3.74876 -30.95283,3.10696 z"
         id="path844" /></g><path
       style="opacity:1;fill:#b297c2;fill-opacity:1;fill-rule:evenodd;stroke:none;stroke-width:1.31742;stroke-linejoin:round;stroke-opacity:1;paint-order:markers fill stroke"
       d="m 398.95834,472.53442 c -0.28888,-0.11596 -1.19572,-0.36007 -2.01512,-0.54275 -2.23556,-0.49835 -5.98415,-4.32771 -13.72152,-14.01729 -18.8068,-23.55194 -33.01973,-36.28062 -50.18414,-44.94344 -9.99991,-5.04691 -16.56247,-7.11214 -25.24598,-7.94489 -6.3921,-0.61298 -9.79359,-2.19345 -12.27857,-5.70505 -4.86983,-6.88166 -4.56309,-15.03155 0.7875,-20.92402 3.72419,-4.10134 5.86552,-4.82867 14.15068,-4.80648 11.02219,0.0301 22.9561,3.39453 36.76165,10.36569 13.83564,6.98628 23.368,13.93489 37.55222,27.37355 4.61379,4.37127 8.54538,7.77519 8.73686,7.56428 0.19159,-0.21088 1.34311,-3.59521 2.5591,-7.52063 9.3599,-30.2151 26.56694,-65.42277 45.60415,-93.31162 13.24566,-19.40442 26.1486,-34.85316 46.13823,-55.24156 0,0 18.13158,-16.21798 28.83909,-24.57822 5.12713,-4.00318 11.14123,-4.77962 18.99388,0.57998 7.56715,5.16474 8.2662,13.79524 3.69823,18.62017 -14.71247,12.8682 -29.1122,26.46613 -41.88238,43.86633 -6.43072,8.76226 -23.25345,26.01651 -32.16564,39.2221 -22.45523,33.27298 -40.46055,77.20225 -46.37152,113.13703 -1.70871,10.38792 -4.32429,15.06214 -9.74069,17.40733 -2.43913,1.05609 -8.8743,1.93765 -10.21637,1.39949 z"
       id="path852"
       sodipodi:nodetypes="csssssscsssssssscsssscc" /></g></g></svg>
